<?xml version="1.0" encoding="UTF-8" standalone="no"?>
<!-- Created with Inkscape (http://www.inkscape.org/) -->

<svg
   width="88pt"
   height="31pt"
   viewBox="0 0 31.044444 10.936111"
   version="1.1"
   id="svg1"
   xml:space="preserve"
   inkscape:version="1.3.2 (091e20ef0f, 2023-11-25)"
   sodipodi:docname="88x31.svg"
   xmlns:inkscape="http://www.inkscape.org/namespaces/inkscape"
   xmlns:sodipodi="http://sodipodi.sourceforge.net/DTD/sodipodi-0.dtd"
   xmlns:xlink="http://www.w3.org/1999/xlink"
   xmlns="http://www.w3.org/2000/svg"
   xmlns:svg="http://www.w3.org/2000/svg"><sodipodi:namedview
     id="namedview1"
     pagecolor="#505050"
     bordercolor="#eeeeee"
     borderopacity="1"
     inkscape:showpageshadow="0"
     inkscape:pageopacity="0"
     inkscape:pagecheckerboard="0"
     inkscape:deskcolor="#505050"
     inkscape:document-units="mm"
     showgrid="false"
     inkscape:zoom="7.0714075"
     inkscape:cx="41.85871"
     inkscape:cy="51.404193"
     inkscape:window-width="1763"
     inkscape:window-height="1173"
     inkscape:window-x="0"
     inkscape:window-y="0"
     inkscape:window-maximized="1"
     inkscape:current-layer="layer1"><inkscape:grid
       id="grid1"
       units="pt"
       originx="0"
       originy="0"
       spacingx="0.35277778"
       spacingy="0.35277778"
       empcolor="#0099e5"
       empopacity="0.30196078"
       color="#0099e5"
       opacity="0.14901961"
       empspacing="4"
       dotted="false"
       gridanglex="30"
       gridanglez="30"
       visible="false" /></sodipodi:namedview><defs
     id="defs1"><linearGradient
       id="linearGradient15"
       inkscape:collect="always"><stop
         style="stop-color:#2cbfff;stop-opacity:0.09610263;"
         offset="0.25000018"
         id="stop14" /><stop
         style="stop-color:#ffffff;stop-opacity:0;"
         offset="0.25000018"
         id="stop15" /></linearGradient><linearGradient
       id="linearGradient12"
       inkscape:collect="always"><stop
         style="stop-color:#000000;stop-opacity:0.23195578;"
         offset="0.25000018"
         id="stop12" /><stop
         style="stop-color:#000000;stop-opacity:0;"
         offset="0.25000018"
         id="stop13" /></linearGradient><linearGradient
       id="linearGradient10"
       inkscape:collect="always"><stop
         style="stop-color:#33b8ff;stop-opacity:0.23095703;"
         offset="0"
         id="stop10" /><stop
         style="stop-color:#ffffff;stop-opacity:0;"
         offset="1"
         id="stop11" /></linearGradient><linearGradient
       inkscape:collect="always"
       xlink:href="#linearGradient103"
       id="linearGradient102"
       x1="483.314"
       y1="997.9715"
       x2="2281.7651"
       y2="568.87958"
       gradientUnits="userSpaceOnUse"
       gradientTransform="matrix(0.01505693,0,0,0.01505693,-4.931079,-6.0961349)" /><linearGradient
       id="linearGradient103"
       inkscape:collect="always"><stop
         style="stop-color:#7fbbff;stop-opacity:1;"
         offset="0"
         id="stop103" /><stop
         style="stop-color:#d3b0ff;stop-opacity:1;"
         offset="0.50684583"
         id="stop105" /><stop
         style="stop-color:#ff77ea;stop-opacity:1;"
         offset="1"
         id="stop104" /></linearGradient><radialGradient
       inkscape:collect="always"
       xlink:href="#linearGradient85"
       id="radialGradient86"
       cx="461.99716"
       cy="-667.99426"
       fx="461.99716"
       fy="-667.99426"
       r="1382.5397"
       gradientTransform="matrix(0,-0.01595825,0.01595825,0,14.14386,16.735579)"
       gradientUnits="userSpaceOnUse" /><linearGradient
       id="linearGradient85"
       inkscape:collect="always"><stop
         style="stop-color:#2e0847;stop-opacity:1;"
         offset="0"
         id="stop85" /><stop
         style="stop-color:#1a0d22;stop-opacity:1;"
         offset="1"
         id="stop86" /></linearGradient><radialGradient
       inkscape:collect="always"
       xlink:href="#linearGradient85-7"
       id="radialGradient87"
       gradientUnits="userSpaceOnUse"
       gradientTransform="matrix(0,-0.00918599,0.00918599,0,8.9034479,16.697563)"
       cx="1587.2972"
       cy="-201.16417"
       fx="1587.2972"
       fy="-201.16417"
       r="1382.5397" /><linearGradient
       id="linearGradient85-7"><stop
         style="stop-color:#13b6ff;stop-opacity:0.18052231;"
         offset="0"
         id="stop87" /><stop
         style="stop-color:#138fff;stop-opacity:0;"
         offset="1"
         id="stop88" /></linearGradient><radialGradient
       inkscape:collect="always"
       xlink:href="#linearGradient85-8"
       id="radialGradient88"
       gradientUnits="userSpaceOnUse"
       gradientTransform="matrix(0,-0.01403416,0.01403416,0,-7.1013883,13.362434)"
       cx="122.61281"
       cy="2592.385"
       fx="122.61281"
       fy="2592.385"
       r="1382.5397" /><linearGradient
       id="linearGradient85-8"><stop
         style="stop-color:#fc13ff;stop-opacity:0.24069118;"
         offset="0"
         id="stop85-4" /><stop
         style="stop-color:#b013ff;stop-opacity:0;"
         offset="1"
         id="stop86-7" /></linearGradient><linearGradient
       inkscape:collect="always"
       xlink:href="#linearGradient10"
       id="linearGradient11"
       x1="1.4111111"
       y1="12.7"
       x2="3.5277779"
       y2="25.047222"
       gradientUnits="userSpaceOnUse"
       gradientTransform="translate(0,-12.7)" /><radialGradient
       inkscape:collect="always"
       xlink:href="#linearGradient12"
       id="radialGradient13"
       cx="182.39175"
       cy="75.576561"
       fx="182.39175"
       fy="75.576561"
       r="15.169445"
       gradientTransform="matrix(0.09302011,0,0,0.09302327,14.078344,3.905732)"
       gradientUnits="userSpaceOnUse"
       spreadMethod="repeat" /><radialGradient
       inkscape:collect="always"
       xlink:href="#linearGradient15"
       id="radialGradient14"
       gradientUnits="userSpaceOnUse"
       gradientTransform="matrix(0.09302011,0,0,0.09302327,14.078344,3.905732)"
       cx="-151.34732"
       cy="-11.647731"
       fx="-151.34732"
       fy="-11.647731"
       r="15.169445"
       spreadMethod="repeat" /></defs><g
     inkscape:label="Layer 1"
     inkscape:groupmode="layer"
     id="layer1"><rect
       style="font-variation-settings:'opsz' 32, 'wght' 800;fill:#471c6e;fill-opacity:1;stroke:none;stroke-width:0.352777;stroke-linejoin:round;paint-order:markers fill stroke"
       id="rect6"
       width="31.044447"
       height="10.93611"
       x="-3.5719576e-14"
       y="-1.9073487e-07"
       ry="1.0583333" /><rect
       style="font-variation-settings:'opsz' 32, 'wght' 800;fill:url(#radialGradient86);fill-opacity:1;stroke:none;stroke-width:0.148761;stroke-linejoin:round;stroke-dasharray:none;stroke-opacity:1;paint-order:markers fill stroke"
       id="rect85"
       width="30.33889"
       height="10.230556"
       x="0.35277778"
       y="0.3527773"
       ry="0.7055558" /><rect
       style="font-variation-settings:'opsz' 32, 'wght' 800;fill:url(#radialGradient87);fill-opacity:1;stroke:none;stroke-width:0.148761;stroke-linejoin:round;stroke-dasharray:none;stroke-opacity:1;paint-order:markers fill stroke"
       id="rect86"
       width="30.33889"
       height="10.230556"
       x="0.35277778"
       y="0.3527773"
       ry="0.70489699" /><rect
       style="font-variation-settings:'opsz' 32, 'wght' 800;fill:url(#radialGradient13);fill-opacity:1;stroke:none;stroke-width:0.148761;stroke-linejoin:round;stroke-dasharray:none;stroke-opacity:1;paint-order:markers fill stroke"
       id="rect11"
       width="30.33889"
       height="10.230556"
       x="0.35277778"
       y="0.3527773"
       ry="0.7055558" /><rect
       style="font-variation-settings:'opsz' 32, 'wght' 800;fill:url(#radialGradient14);fill-opacity:1;stroke:none;stroke-width:0.148761;stroke-linejoin:round;stroke-dasharray:none;stroke-opacity:1;paint-order:markers fill stroke"
       id="rect13"
       width="30.33889"
       height="10.230556"
       x="0.35277778"
       y="0.3527773"
       ry="0.7055558" /><rect
       style="font-variation-settings:'opsz' 32, 'wght' 800;fill:url(#radialGradient88);fill-opacity:1;stroke:none;stroke-width:0.148761;stroke-linejoin:round;stroke-dasharray:none;stroke-opacity:1;paint-order:markers fill stroke"
       id="rect87"
       width="30.33889"
       height="10.230556"
       x="0.35277778"
       y="0.3527773"
       ry="0.7055558" /><path
       id="path9"
       style="font-variation-settings:'opsz' 32, 'wght' 800;fill:#763bd9;fill-opacity:1;stroke:none;stroke-width:0.352777;stroke-linejoin:round;paint-order:markers fill stroke"
       d="M 1.0583333,0 C 0.47201728,0 0,0.472017 0,1.058333 v 0.35295 C 0,0.824967 0.47201728,0.35295 1.0583333,0.35295 H 29.986283 c 0.586316,0 1.058334,0.472017 1.058334,1.058333 V 1.058333 C 31.044617,0.472017 30.572599,0 29.986283,0 Z" /><path
       id="path74"
       style="fill:url(#linearGradient102);fill-opacity:1;stroke:none;stroke-width:0.30114;stroke-dasharray:none;stroke-opacity:1"
       d="M 2.4105208,2.469444 V 3.563836 H 4.645035 L 2.3461466,7.798393 H 6.2920035 L 6.6536942,6.703999 H 4.3855077 L 6.6593682,2.469444 Z M 25.241536,3.477023 c -0.632999,1.096488 -1.266081,2.192942 -1.899115,3.28941 l 0.438444,0.636215 C 24.469157,6.210411 25.15751,5.018194 25.84584,3.82598 25.644431,3.709611 25.44297,3.593343 25.241536,3.477023 Z m 2.070681,0 C 27.11076,3.593337 26.909304,3.709641 26.707851,3.825951 27.412245,5.04594 28.116605,6.265966 28.820937,7.48599 29.022369,7.36965 29.22384,7.253378 29.425303,7.137093 28.720909,5.917094 28.016553,4.697056 27.312217,3.477023 Z M 26.276786,3.947612 C 25.535704,5.231185 24.794685,6.51481 24.053565,7.798364 h 4.44656 C 27.758994,6.514796 27.017881,5.2312 26.276786,3.947612 Z m -13.262009,0.01316 c -0.345727,0 -0.661648,0.07508 -0.947763,0.225295 -0.286119,0.150213 -0.513834,0.370767 -0.683119,0.661652 -0.169286,0.288502 -0.253939,0.643786 -0.253939,1.065808 0,0.398179 0.07869,0.74269 0.236059,1.033576 0.157363,0.290885 0.377917,0.516224 0.66165,0.675973 0.28612,0.157364 0.619916,0.23603 1.001404,0.23603 0.350495,0 0.659254,-0.06554 0.926296,-0.196682 0.267043,-0.133521 0.474506,-0.323079 0.622333,-0.568663 0.150211,-0.245586 0.225299,-0.534091 0.225296,-0.865508 V 5.641712 h -1.741722 v 0.819015 h 0.617744 c -0.0051,0.113456 -0.05674,0.207784 -0.156392,0.282523 -0.10253,0.0763 -0.2563,0.114453 -0.461352,0.114453 -0.169287,0 -0.309973,-0.03574 -0.422036,-0.107286 -0.11206,-0.07391 -0.196714,-0.181226 -0.253939,-0.321901 -0.05483,-0.143057 -0.08226,-0.317119 -0.08226,-0.522169 0,-0.202668 0.02741,-0.37432 0.08226,-0.514994 0.05722,-0.140673 0.141877,-0.247988 0.253939,-0.321902 0.11206,-0.07391 0.250343,-0.110863 0.41486,-0.110863 0.102529,0 0.190757,0.01316 0.264673,0.03934 0.07391,0.02623 0.133528,0.06555 0.17883,0.118016 0.04768,0.05246 0.07986,0.120408 0.09655,0.203855 h 1.173086 C 14.745785,5.040837 14.652783,4.80003 14.48827,4.597362 14.326136,4.394698 14.116326,4.238542 13.858822,4.128863 13.603699,4.016803 13.322355,3.960766 13.014779,3.960766 Z M 8.1078342,4.021552 6.8596377,7.798313 H 11.033408 L 9.7708896,4.021562 Z m 7.1780098,0 v 2.220986 c 0,0.333804 0.0739,0.623512 0.221737,0.869096 0.150213,0.245584 0.363604,0.435141 0.640185,0.568664 0.278961,0.133522 0.610382,0.200268 0.994258,0.200268 0.388641,0 0.721268,-0.06675 0.997845,-0.200268 C 18.41645,7.546775 18.628637,7.357218 18.776466,7.111634 18.926678,6.86605 19.00179,6.576342 19.00179,6.242538 V 4.021552 h -1.230316 v 2.142319 c 0,0.147827 -0.02504,0.275393 -0.07512,0.382686 -0.04768,0.104913 -0.118015,0.185953 -0.211001,0.243176 -0.09298,0.05485 -0.207438,0.08228 -0.34334,0.08228 -0.131137,0 -0.244409,-0.02746 -0.33978,-0.08228 -0.09298,-0.05722 -0.164492,-0.138265 -0.214562,-0.243176 -0.04768,-0.107296 -0.07155,-0.234859 -0.07155,-0.382686 V 4.021552 Z m 4.402624,0 V 7.798313 H 20.85082 V 6.643112 h 0.515113 l 0.775991,1.155208 h 1.33045 l -0.91262,-1.324276 c 0.107491,-0.04627 0.205657,-0.101814 0.293904,-0.167125 0.305193,-0.224125 0.457794,-0.537668 0.457794,-0.940617 0,-0.422022 -0.147847,-0.751037 -0.443502,-0.987083 -0.295654,-0.23843 -0.700983,-0.35766 -1.215993,-0.35766 z m 1.162352,0.944204 h 0.625895 c 0.20982,0 0.3648,0.03217 0.46494,0.09655 0.100145,0.06437 0.150218,0.17169 0.150218,0.321901 0,0.145441 -0.05246,0.250347 -0.157365,0.314726 -0.102529,0.06437 -0.262289,0.09655 -0.479262,0.09655 H 20.85082 Z m 5.425966,0.377366 c 0.33821,0.585779 0.676431,1.171556 1.014638,1.757337 -0.676411,1e-5 -1.352832,1.3e-5 -2.029245,3e-5 0.338201,-0.585788 0.676408,-1.17158 1.014607,-1.757367 z M 24.163699,8.232346 V 8.9302 c 1.408741,3e-6 2.817495,-5e-6 4.226235,0 V 8.232343 c -1.40874,-4e-6 -2.817494,4e-6 -4.226235,0 z" /><g
       id="g84"
       transform="matrix(0.0050762,0,0,0.0050762,-13.234913,-2.591487)"><path
         fill="#ffffff"
         d="m 4147.0419,2043.3898 c 4.7569,-50.9671 12.2321,-80.1883 25.1437,-99.8955 8.1548,-12.2321 33.9781,-40.7737 40.0942,-43.492 l 2.0386,-1.3591 6.1161,0.6796 c 19.0277,0.6795 36.0167,5.4365 64.5583,16.3095 l 16.9891,6.116 23.105,9.5139 4.0774,2.0386 2.0387,5.4365 19.0277,44.8511 c 8.8343,20.3868 21.0664,56.4036 21.0664,61.8401 v 1.3591 h -224.2552 z m 311.9186,-0.6796 c -2.0387,-21.7459 -6.116,-36.0167 -17.6686,-62.5196 -11.5525,-27.1825 -14.9503,-34.6577 -21.0664,-53.6854 -15.6299,-44.851 -15.6299,-44.1715 -18.3481,-36.0167 -4.0774,11.5525 -3.3978,6.7956 1.3591,-10.1934 5.4365,-16.3095 4.7569,-15.6299 9.5139,-12.2321 10.8729,8.1547 18.3481,23.105 26.5028,52.3262 5.9652,22.756 12.3086,45.4112 19.0278,67.9561 4.0773,13.5912 6.116,23.1051 8.1547,35.3372 l 1.3591,8.1547 v 14.9504 h -8.1547 z m -301.7252,-89.7021 -2.0387,-4.7569 -0.6796,-2.7183 v -18.3481 l 2.0387,-10.1934 c 6.7956,-34.6577 24.4642,-72.0335 38.0555,-78.8291 10.1934,-5.4365 52.3262,-14.9504 73.3926,-16.9891 h 5.4365 l -2.0387,2.7183 c -6.832,9.5727 -14.3255,18.6558 -22.4255,27.1824 l -0.6796,1.3591 -5.4365,-2.7182 -19.0277,-8.1547 30.5803,20.3868 c 16.989,10.873 39.4145,27.1825 50.2875,37.3759 l 8.1547,7.4752 4.0774,4.7569 c 4.0774,5.4365 8.1547,12.9116 7.4752,12.9116 l -8.1548,-3.3978 c -50.9671,-20.3868 -74.0721,-27.1824 -97.8568,-27.862 l -10.1934,-0.6795 -12.2321,11.5525 c -16.3095,16.3095 -28.5416,32.619 -35.3372,44.8511 l -2.7182,5.4364 z m 241.2443,-55.0444 0.6795,-0.6796 v 0.6796 c 0,0.6795 0,0 0,0 z m -70.6744,-62.5197 -6.1161,-6.116 c -8.8352,-8.8176 -15.9758,-19.183 -21.0664,-30.5803 -1.3591,-2.7182 -3.3978,-11.5525 -2.0387,-12.9117 l 3.3979,2.0387 7.4751,3.3978 h 2.0387 l 2.7183,-2.7182 -1.3592,-3.3978 -2.0386,-8.1548 -1.3592,-6.116 -0.6795,-7.4752 -0.6796,-8.1547 2.0387,-6.7956 6.116,-31.2599 v -2.0386 l 4.0774,0.6795 4.0774,1.3591 -2.0387,12.9117 -2.7182,12.2321 v 13.5912 l 0.6795,2.7183 c 4.0774,14.9503 12.9117,27.1824 27.862,38.735 l 14.2708,8.1547 -3.3978,-7.4752 c -4.0774,-6.7956 -6.116,-12.9116 -6.116,-12.9116 l 4.0773,6.7956 c 11.5147,23.8588 29.3852,44.0806 51.6467,58.4423 l -1.3591,2.7182 -1.3592,2.7183 -7.4751,2.7182 -11.5526,0.6796 -12.2321,-1.3592 -8.8343,-3.3978 -8.8343,-2.7182 z m 129.1166,-8.1547 c -9.5138,-3.3978 -35.3371,-16.9891 -39.4145,-20.3869 l -1.3591,-1.3591 v -2.7182 l -0.6796,-8.8343 -0.6796,-7.4752 0.6796,-11.5525 c 0.768,-17.9856 2.5832,-35.911 5.4365,-53.6854 3.3978,-27.1824 6.7956,-38.0554 10.873,-36.6963 l 2.7182,0.6796 v 3.3978 l -1.3591,5.4365 v 2.7182 l 2.0387,-1.3591 c 8.8343,-6.1161 10.873,-6.1161 22.4255,-4.7569 l 8.8343,1.3591 16.3095,-0.6796 9.5138,-2.0387 9.5139,-4.7569 8.8343,-8.8343 3.3978,-6.1161 c 3.3978,-6.116 5.4365,-12.9116 6.7956,-18.3481 v -2.7183 h 10.1934 l 14.9504,3.3979 -2.0387,2.7182 -10.873,16.3095 -1.3591,3.3978 v 9.5138 l 1.3591,2.7183 3.3978,5.4365 2.0387,2.7182 4.0774,2.0387 6.116,2.0387 3.3978,0.6795 h 2.0387 v 2.0387 c -10.3469,37.2641 -29.4526,71.5146 -55.724,99.8955 l -6.1161,6.7957 -6.7956,5.4365 c -16.3095,12.9116 -21.7459,15.6299 -28.5416,13.5912 z m 50.9671,-53.0058 1.3592,-2.7183 -18.3482,-8.1547 -7.4752,-2.0387 -8.8343,-2.0387 -10.8729,-1.3591 h -2.7183 l 2.7183,2.7183 2.0386,2.7182 8.8343,2.7183 31.2599,10.1934 h 0.6795 z m -88.3429,46.8897 -0.6796,-3.3978 -0.6796,-2.0387 1.3592,0.6796 h 0.6795 v 4.0774 l -0.6795,1.3591 z m -67.2766,-38.0554 v -0.6796 l 0.6796,0.6796 h -0.6796 c -0.6796,0 0,0 0,0 z m -29.9007,-71.3539 c -2.0387,-0.6796 -11.5525,-2.0387 -23.7847,-2.7183 -8.1547,-0.6796 -9.5138,-0.6796 -14.2707,-3.3978 l -4.757,-2.0387 -12.2321,-9.5138 -13.5912,-10.1935 v -0.6795 l 2.7182,-2.7183 c 3.3979,-3.3978 2.0387,-7.4751 -3.3978,-9.5138 l -1.3591,-0.6796 -6.7956,6.1161 -3.3978,-3.3978 3.3978,-2.7183 2.7182,-4.0774 c 0,-1.3591 -3.3978,-5.4364 -5.4364,-6.116 l -1.3592,-0.6796 -7.4751,6.1161 -9.5139,-10.1934 c -20.5487,-20.8488 -39.6225,-43.1015 -57.0831,-66.597 0,-1.3592 15.6299,0 25.8233,2.7182 18.3318,4.4688 36.2826,10.3766 53.6853,17.6686 l 4.0774,2.0387 1.3591,4.0773 2.7183,10.1935 0.6795,4.7569 v 12.9117 l -0.6795,2.0386 -1.3592,2.0387 -4.7569,2.0387 -3.3978,-1.3591 c -6.116,-1.3591 -18.3482,-8.1547 -29.9007,-16.3095 l -6.7956,-5.4365 -2.0387,-0.6795 4.7569,4.0773 c 6.7957,6.7956 19.0278,16.3095 26.5029,20.3869 l 6.1161,3.3978 h 10.1934 l 2.0387,-2.0387 c 0.6795,-0.6796 2.7182,-2.0387 2.7182,-3.3978 l 1.3592,-2.0387 v -14.9503 l -2.0387,-7.4752 -2.7183,-11.5526 -1.3591,-4.0773 h 0.6796 l 21.7459,8.1547 4.0774,1.3591 -0.6796,2.7183 c -10.1934,29.2211 4.0774,59.8014 27.1825,59.8014 h 2.0387 l -0.6796,-0.6796 -6.7956,-2.7182 -6.7956,-2.7183 -4.7569,-3.3978 -2.0387,-3.3978 -3.3978,-8.1547 -2.0387,-4.757 -0.6796,-8.1547 -0.6795,-7.4752 0.6795,-5.4365 c 1.3591,-6.7956 1.3591,-8.1547 2.7183,-8.1547 2.0386,0 33.2985,17.6686 44.1714,25.1438 l 3.3979,2.7182 v 6.1161 c -0.6796,11.5525 -2.7183,32.6189 -4.757,42.8123 l -1.3591,10.873 -0.6796,-0.6795 z m -77.47,-27.8621 -1.3591,-2.0386 2.0387,2.0386 1.3591,2.0387 z m 1.3591,-1.3591 -2.0387,-2.7182 2.0387,-2.0387 4.757,4.7569 -0.6796,0.6796 c -1.3591,2.0387 -2.0387,2.0387 -4.0774,-0.6796 z m 215.421,0.6796 c -10.1935,-2.0387 -19.0277,-5.4365 -26.5029,-10.873 l -4.757,-2.7183 0.6796,-0.6795 5.4365,-25.1438 c 2.7182,-11.5525 7.4752,-25.8233 8.1547,-25.1438 l -1.3591,4.0774 -2.0387,8.8343 -0.6795,4.0774 0.6795,0.6795 1.3592,0.6796 4.7569,0.6796 10.1934,2.0387 7.4752,1.3591 h 0.6795 l -2.7182,8.8343 -0.6796,11.5525 1.3592,4.0774 c 1.3591,5.4365 4.0773,11.5525 7.4751,15.6299 3.3978,4.0774 1.3591,4.7569 -9.5138,2.0387 z m -210.664,-5.4365 -1.3592,-2.0387 c 0.6796,0 4.757,3.3978 4.0774,4.0774 z m 2.0386,-1.3591 -2.0386,-2.7183 h 2.0386 l 3.3978,3.3978 -0.6795,0.6796 c -0.6796,0.6795 -1.3591,0.6795 -2.7183,-1.3591 z m -19.7072,-3.3978 -0.6796,-2.0387 c 1.3591,0.6795 3.3978,4.0773 2.7182,4.0773 z m 2.0386,-2.0387 -2.0386,-2.0387 1.3591,-1.3591 0.6795,-0.6796 4.757,4.0774 -1.3591,1.3591 c -1.3592,2.0387 -1.3592,1.3591 -3.3979,-1.3591 z m 4.757,-4.0774 -2.0387,-2.0387 0.6796,-0.6795 4.0773,4.7569 z m 1.3591,-1.3591 -1.3591,-2.7183 c 0,-0.6795 2.7182,0 4.0773,1.3592 l 1.3592,1.3591 -0.6796,0.6795 c -0.6796,1.3592 -1.3591,1.3592 -3.3978,-0.6795 z m 269.7858,-6.1161 c -3.3978,-0.6795 -3.3978,-0.6795 -2.7182,-4.7569 1.3591,-3.3978 2.0387,-4.0774 4.7569,-4.7569 l 2.7183,-0.6796 0.6795,1.3591 v 0.6796 l -1.3591,4.7569 c -1.3591,4.757 -0.6795,4.757 -4.0774,3.3978 z m -182.1224,-29.9007 c -21.7433,-10.8317 -44.5066,-19.4818 -67.9561,-25.8233 -30.2058,-10.1386 -61.4213,-16.9741 -93.0999,-20.3868 h -5.4365 c 0,-2.7183 40.0941,-4.757 75.4313,-4.757 l 17.6686,0.6796 6.7956,0.6796 12.2321,1.3591 c 10.1934,0.6795 38.0554,6.116 48.2489,9.5138 l 3.3978,0.6796 2.0386,4.0774 2.7183,10.8729 1.3591,6.1161 0.6796,19.0277 -0.6796,-0.6795 c -0.6795,0 -2.0387,0 -3.3978,-1.3592 z m 115.5254,-12.9116 0.6796,-0.6796 v 0.6796 z m 116.8846,-16.3095 c -2.7183,-11.5525 -3.3978,-14.9504 -5.4365,-16.989 l -1.3591,-1.3592 h -2.0387 l -2.0387,2.0387 c -2.7245,4.9149 -4.7813,10.1712 -6.116,15.6299 l -1.3592,4.0774 -0.6795,-1.3591 -1.3592,-5.4365 c -0.6795,-6.1161 -2.7182,-13.5912 -4.0773,-15.6299 l -0.6796,-1.3591 h -2.7182 l -1.3592,2.0386 -4.7569,10.873 -2.0387,4.0774 -2.0387,-10.1934 -2.0386,-10.873 v -1.3591 l 2.7182,7.4751 2.7183,0.6796 1.3591,-2.7182 c 2.0387,-2.7183 5.4365,-13.5913 5.4365,-16.3095 0,-3.3978 0.6795,-2.7183 3.3978,3.3978 2.7182,6.7956 6.116,12.9117 6.7956,12.9117 3.3978,0 8.8343,-14.9504 10.1934,-25.8234 l 0.6796,-5.4365 0.6795,-2.7182 0.6796,2.7182 7.4752,36.6963 0.6795,8.8343 -0.6795,15.63 z"
         id="path83"
         sodipodi:nodetypes="cccccccccccscccccccccccscccccccccccccccccccccccccccccccsccccccccccccccccccccccccccccccccccccccccccccccccccccccccccsccccccccccccccccccccccccccccccccccccccccccccsccccccccscccccccccccccccccccccccccccccsccccccccccscccccccccccsccccccccccccsccccsccccccccccccccccccscccccccccscccccccccccccccccccscccccscccsccccccccccccccccccccccscccccccccccccccccccscssccccccc"
         style="stroke-width:0.679561" /><path
         d="m 4139.5667,2043.3898 2.0387,-13.5912 c 1.3591,-16.9891 5.4365,-40.0942 9.5138,-56.4036 3.3978,-11.5526 3.3978,-10.1935 0.6796,-14.9504 l -1.3591,-4.0774 -1.3591,-6.116 -1.3592,-5.4365 v -4.7569 c 0,-29.9007 17.6686,-78.8291 36.0168,-99.216 l 4.0774,-4.0773 4.0773,-2.0387 c 27.7834,-10.1883 56.8124,-16.5884 86.3043,-19.0277 l 1.3591,-0.6796 3.3978,-4.7569 c 4.0774,-6.7957 8.1548,-14.2708 10.1935,-21.0664 l 1.3591,-4.0774 -2.0387,-1.3591 -16.3095,-14.9504 -5.4365,-6.116 -3.3978,-6.1161 c -6.116,-10.873 -8.1547,-18.3481 -8.1547,-27.862 v -4.7569 l -0.6796,2.0387 -0.6795,6.116 v 4.0774 h -0.6796 l -6.7956,4.0773 -6.1161,4.0774 -7.4751,7.4752 c -8.1548,8.1547 -9.5139,8.8343 -10.873,7.4752 -1.3591,-2.0387 -4.0774,-10.873 -5.4365,-18.3482 l -2.0387,-8.8343 v -11.5525 l 1.3591,-5.4365 2.7183,-10.1934 1.3591,-6.1161 4.7569,-1.3591 c 4.757,-1.3591 4.0774,-2.0387 -2.0387,-0.6796 -14.9503,4.0774 -36.0167,2.0387 -44.1714,-3.3978 -2.0387,-2.0387 -2.7183,-1.3591 4.7569,-8.8343 l 6.7956,-6.7956 3.3978,-5.4365 c 4.0774,-6.116 6.1161,-10.1934 9.5139,-17.6686 l 2.0387,-4.7569 -0.6796,-1.3591 -9.5139,-11.5526 c -13.6688,-16.8686 -26.5929,-34.3274 -38.735,-52.3262 v -1.3591 l 0.6796,-0.6796 5.4365,-1.3591 c 8.8514,-0.4357 17.689,-1.1155 26.5029,-2.0387 l 38.735,-2.7182 h 4.7569 l 2.0387,-8.8343 2.0387,-8.8343 c 0,-10.873 18.3481,-42.8124 31.9394,-56.4036 23.2225,-22.5025 53.4284,-36.4068 85.6247,-39.4146 l 8.8343,-0.6795 h 6.116 l 31.9394,4.0773 c 36.0168,6.1161 89.0226,26.5029 117.5641,45.5306 8.1548,5.4365 29.2212,22.4256 34.6577,27.8621 l 4.0773,4.0773 1.3591,4.0774 c 2.7183,10.1934 7.4752,36.0167 8.8343,47.5693 l 0.6796,7.4752 v 41.4532 l -1.3591,7.4752 c -0.6796,9.5138 0.6795,8.8343 -12.2321,8.1547 h -10.873 v 0.6796 c -1.3591,4.7569 -4.7569,32.6189 -4.0774,32.6189 l 10.873,3.3978 h 2.0387 l 2.7182,2.7183 v 3.3978 c 0,6.7956 -10.8729,34.6576 -23.105,57.0831 -6.1161,11.5526 -6.1161,11.5526 -7.4752,20.3869 l -0.6796,8.1547 0.6796,29.2211 2.0387,8.1548 2.7182,12.2321 0.6796,4.0773 -1.3592,1.3592 h -2.0386 c -7.922,-2.8749 -15.6412,-6.2804 -23.1051,-10.1935 l -12.9117,-6.7956 -6.7956,-3.3978 h -1.3591 l -8.8343,5.4365 -9.5139,6.1161 -3.3978,1.3591 h -5.4365 l -5.4365,-2.0387 -16.3094,-7.4752 -10.873,-4.7569 -0.6796,0.6796 -2.7182,6.116 -2.0387,5.4365 2.0387,7.4752 4.0773,11.5525 2.0387,4.0774 -1.3591,2.0387 h -4.7569 l -10.1934,-4.757 -0.6796,2.0387 -1.3591,4.0774 -0.6796,2.7182 2.0387,1.3592 c 16.3095,12.2321 24.4642,29.9007 36.6963,78.1495 2.52,9.8638 5.4676,19.6134 8.8343,29.2212 l 4.0774,15.6299 c 4.0773,12.2321 6.116,20.3868 7.4751,29.9007 l 2.0387,9.5138 v 10.873 l 0.6796,10.873 h -3.3978 l -0.6796,-8.1547 c -0.6795,-18.3482 -2.7182,-28.5416 -12.9116,-62.5197 -8.6827,-28.2922 -17.2906,-56.6074 -25.8234,-84.9452 0,-4.7569 -12.9116,-22.4255 -18.3481,-25.1437 l -2.0387,-1.3591 -1.3591,2.7182 c -2.7183,8.8343 -8.8343,29.9007 -8.1548,30.5803 l 3.3978,-8.1548 1.3592,-4.7569 0.6795,0.6796 14.9504,40.7736 c 5.5636,17.1394 12.1444,33.9317 19.7072,50.2876 12.9117,28.5415 17.6686,44.851 19.0278,64.5583 l 0.6795,5.4365 h -86.9838 l -0.6796,-2.0387 c -9.8911,-38.6869 -24.2589,-76.0887 -42.8124,-111.4481 -2.0386,-2.0386 -24.4642,-10.8729 -55.724,-22.4255 l -13.5912,-4.7569 -23.7847,-6.1161 -6.7956,-0.6795 -10.8729,-0.6796 h -4.757 l -2.0387,1.3591 c -8.8343,6.1161 -36.0167,37.3759 -43.4919,50.9671 -8.8343,15.63 -16.989,50.2876 -20.3868,91.0613 l -0.6796,4.7569 h -6.7956 z m 29.2211,-106.6911 c 7.4752,-10.1935 16.3095,-20.3869 31.2599,-36.0168 l 7.4751,-8.1547 h 5.4365 c 22.4255,0 69.9948,13.5912 107.3707,30.5802 5.4365,2.0387 5.4365,2.0387 3.3978,-2.0387 -7.4752,-12.9116 -21.7459,-26.5029 -48.2488,-44.851 l -36.0168,-24.4642 -13.5912,-9.5139 -0.6796,-0.6795 1.3591,0.6795 c 7.3638,3.1466 14.6168,6.5464 21.746,10.1934 l 4.7569,-6.116 c 6.1801,-7.8341 12.524,-15.5375 19.0278,-23.1051 l 2.0386,-2.7182 h -2.7182 l -8.8343,1.3591 c -19.0277,2.0387 -59.1218,11.5525 -67.9561,15.6299 l -3.3978,2.0387 -3.3978,4.0773 c -14.2708,16.9891 -27.1825,46.2102 -32.619,76.1109 l -0.6796,6.1161 v 21.0664 l 0.6796,2.7182 2.0387,4.0774 0.6796,1.3591 3.3978,-6.116 z m 195.7137,-82.227 12.9117,3.3978 5.4365,1.3592 h 6.116 c 6.7956,0 11.5525,-1.3592 14.9504,-2.7183 l 2.0386,-1.3591 1.3592,-2.0387 c 2.0386,-2.7182 2.0386,-2.7182 -0.6796,-4.0774 -25.1022,-16.2284 -44.3824,-40.0311 -55.0445,-67.9561 -0.6795,0.6796 3.3978,10.873 6.7956,16.989 l 3.3979,6.7957 -1.3592,-0.6796 c -14.9503,-4.0774 -35.3372,-27.1825 -40.0941,-45.5306 l -0.6795,-4.0774 0.6795,-14.9503 2.0387,-10.1935 2.7182,-11.5525 v -0.6796 l -4.0773,-1.3591 -4.757,-1.3591 h -0.6795 l 0.6795,1.3591 -0.6795,5.4365 -2.7183,12.9117 -3.3978,14.9503 -1.3591,5.4365 0.6796,8.8343 v 8.8343 l 2.0387,6.1161 2.0386,7.4751 0.6796,2.0387 -0.6796,1.3591 -2.0386,1.3592 -2.0387,0.6795 -4.757,-2.7182 c -6.116,-2.7183 -6.116,-2.7183 -6.116,0.6795 v 2.7183 l 2.0387,6.116 c 4.7569,10.873 12.9116,23.1051 23.1051,33.2985 l 4.7569,4.757 z m 107.3707,-30.5802 c 39.6907,-30.7305 68.505,-73.3567 82.2269,-121.6415 l 0.6796,-2.0387 h -1.3592 l -3.3978,-1.3591 c -7.4751,-1.3591 -12.9116,-4.7569 -16.3094,-10.1934 l -1.3592,-3.3978 -0.6795,-4.757 v -4.0773 l 0.6795,-2.7183 c 0.6796,-2.7182 4.757,-9.5138 10.1935,-16.989 4.0773,-5.4365 4.0773,-4.7569 -1.3592,-6.1161 -16.989,-3.3978 -20.3868,-3.3978 -21.0664,1.3592 -0.6795,4.7569 -4.0773,13.5912 -7.4751,19.7072 l -2.7183,4.757 -7.4752,7.4751 -5.4364,2.7183 c -6.1161,2.7182 -9.5139,3.3978 -18.3482,4.7569 l -5.4365,0.6796 -6.116,-0.6796 -12.9117,-1.3591 -6.7956,-0.6796 -4.0774,1.3592 -6.116,3.3978 -3.3978,2.0386 v -2.0386 l 0.6795,-4.757 0.6796,-4.0773 -7.4752,-2.0387 v 0.6795 c -3.1557,15.5507 -5.875,31.1868 -8.1547,46.8898 -3.3978,23.7846 -5.4365,54.3649 -4.0774,68.6357 l 0.6796,6.7956 4.7569,2.7182 c 11.5525,7.4752 25.1438,14.9504 35.3372,18.3482 l 4.7569,1.3591 5.4365,-1.3591 z m 29.9007,-48.9284 c -9.5245,-3.7997 -19.2853,-6.9777 -29.2212,-9.5139 l -6.116,-2.0387 -5.4365,-5.4365 h 1.3591 l 11.5526,1.3591 8.8343,2.0387 6.7956,2.0387 c 8.1547,2.7183 18.3481,6.7956 19.0277,8.1547 l 0.6796,1.3592 -1.3592,1.3591 c -2.0386,2.0387 -2.0386,2.0387 -6.116,0.6796 z m -80.8678,44.851 0.6796,-2.7182 -2.0387,-1.3592 -1.3592,-0.6795 v 2.7182 l 0.6796,3.3978 c 0,2.0387 1.3591,1.3591 2.0387,-1.3591 z m -94.459,-110.7685 1.3591,-8.8343 1.3591,-13.5912 2.0387,-15.6299 0.6796,-13.5913 v -5.4364 l -4.0774,-2.7183 c -10.1934,-7.4752 -43.4919,-25.8233 -44.1715,-25.1438 -6.7956,6.7957 -0.6796,40.7737 8.1547,48.2489 l 2.7183,2.0387 6.7956,2.0387 c 6.116,2.0386 8.1547,3.3978 5.4365,3.3978 l -14.9504,-4.0774 -3.3978,-2.0387 -2.7182,-3.3978 c -4.7569,-6.116 -8.1548,-15.6299 -8.8343,-26.5029 l -0.6796,-4.7569 1.3591,-8.1547 c 0.5946,-4.5872 1.5028,-9.1283 2.7183,-13.5913 -1.3591,-1.3591 -25.8233,-10.1934 -26.5029,-10.1934 l 2.7182,10.873 2.7183,10.1934 v 8.1547 l 0.6796,8.1548 -2.0387,4.7569 -4.757,4.0774 h -8.8343 l -4.0773,-2.7183 c -8.1548,-4.0773 -27.862,-19.0277 -31.9394,-23.7846 l -1.3591,-0.6796 2.0387,0.6796 6.7956,5.4365 22.4255,13.5912 5.4365,2.7182 h 8.1547 l 2.7183,-2.7182 V 1624.78 l -3.3978,-12.9117 -1.3592,-0.6795 c -1.3591,-1.3591 -8.1547,-4.757 -22.4255,-9.5139 -22.4255,-8.1547 -44.851,-13.5912 -56.4036,-13.5912 h -4.7569 l 1.3591,2.0387 c 19.6245,25.2567 40.4901,49.5242 62.5197,72.713 l 3.3978,3.3978 6.7956,-6.116 h 0.6795 l 4.0774,2.0387 2.0387,2.7182 v 2.7183 l -6.1161,5.4365 2.0387,1.3591 c 2.0387,2.7182 2.0387,2.0387 5.4365,-0.6796 3.3978,-3.3978 4.7569,-3.3978 7.4752,0 l 2.7182,2.0387 v 2.7182 l -5.4365,4.757 1.3592,1.3591 c 7.4751,6.1161 25.1437,19.0277 29.2211,21.0664 l 4.7569,2.7182 4.757,0.6796 c 10.8317,1.4983 21.7109,2.6316 32.6189,3.3978 z m -78.8292,-23.7846 -2.7182,-2.7183 -2.0387,-2.0387 v 0.6796 c 0,1.3591 3.3978,5.4365 4.7569,5.4365 z m 1.3592,-5.4365 -2.0387,-2.0387 -2.7183,2.0387 4.757,5.4365 2.0387,-3.3978 z m 224.9348,4.7569 -2.7183,-4.0774 c -3.3978,-4.0773 -6.116,-10.1934 -7.4751,-15.6299 l -1.3592,-4.7569 0.6796,-4.0774 1.3591,-10.1934 c 2.0387,-6.116 2.0387,-5.4365 -6.116,-6.7956 l -16.9891,-2.7183 -0.6795,-0.6795 0.6795,-2.7183 2.7183,-10.1934 2.0387,-8.8343 c -0.6796,-0.6795 -6.1161,16.9891 -9.5139,29.2212 -2.0217,8.8382 -4.0604,17.6725 -6.1161,26.5028 l 2.7183,2.0387 c 10.873,7.4752 40.7737,16.9891 40.7737,12.9117 z m -219.4983,-4.7569 c 0,-1.3592 -4.757,-5.4365 -4.757,-4.757 -0.6795,0.6796 2.7183,5.4365 4.0774,5.4365 z m 2.0386,-3.3978 c -2.7182,-3.3978 -4.0773,-4.0774 -4.7569,-2.7183 l -0.6795,0.6796 4.0773,4.7569 2.0387,-2.0387 z m -20.3868,-1.3592 c -2.0387,-3.3978 -4.7569,-6.116 -4.7569,-4.7569 l 4.7569,5.4365 h 0.6796 z m 2.0387,-6.116 -2.0387,-2.7183 -1.3591,1.3592 c -1.3591,1.3591 -1.3591,1.3591 0.6795,4.0773 l 2.0387,2.7183 2.7183,-2.7183 z m 4.7569,-0.6796 c -0.6795,-2.0387 -4.0773,-4.7569 -4.7569,-4.0773 0,0.6795 3.3978,4.7569 4.7569,4.7569 h 0.6796 z m 2.0387,-1.3591 0.6796,-0.6796 -1.3592,-2.0386 c -2.0386,-2.0387 -3.3978,-2.7183 -4.0773,-1.3592 v 0.6796 l 1.3591,2.0387 c 2.7182,2.7182 2.7182,2.7182 3.3978,1.3591 z m 271.145,-11.5525 1.3591,-4.757 -1.3591,-1.3591 -6.1161,1.3591 -1.3591,4.0774 -0.6796,4.0774 1.3592,0.6795 4.7569,1.3592 h 0.6796 z m -183.4816,-42.1328 c -0.6795,-8.1548 -2.7182,-14.2708 -4.7569,-18.3482 l -1.3591,-4.0774 -5.4365,-1.3591 c -8.9558,-2.3027 -18.03,-4.1175 -27.1825,-5.4365 l -29.2211,-4.0773 -9.5139,-1.3592 h -23.1051 c -27.862,0 -50.9671,0.6796 -66.597,2.7183 l -2.7182,0.6795 v 1.3592 c 7.2818,0.2611 14.5425,0.9418 21.7459,2.0386 20.0983,2.6198 39.8972,7.1712 59.1219,13.5913 10.873,2.7182 40.7737,11.5525 50.9671,15.6299 l 33.2985,14.9503 5.4365,2.0387 v -13.5912 z m 231.7304,-16.3095 c 0,-10.873 -2.0387,-24.4642 -6.7956,-43.4919 -2.0387,-9.5139 -2.7182,-9.5139 -3.3978,-2.7183 l -1.3591,11.5526 -1.3591,6.116 -2.7183,4.7569 -2.7182,5.4365 -2.0387,0.6796 -0.6796,-0.6796 -7.4751,-14.9503 c -1.3592,-4.0774 -1.3592,-3.3978 -2.7183,2.0387 l -0.6796,4.7569 -2.0386,4.7569 -2.7183,6.1161 -0.6795,1.3591 -2.7183,-0.6796 -1.3591,-3.3978 -2.0387,-3.3978 h -0.6796 l 0.6796,1.3591 2.0387,9.5139 2.0387,9.5139 0.6795,1.3591 4.0774,-8.1547 c 4.7569,-9.5139 4.7569,-9.5139 6.7956,-8.1548 l 1.3591,1.3591 1.3592,4.757 2.0386,10.8729 1.3592,6.1161 4.0773,-9.5139 c 4.0774,-10.1934 5.4365,-12.9116 8.1548,-12.2321 l 1.3591,0.6796 1.3591,2.7182 c 0.6796,2.0387 3.3978,11.5526 4.7569,21.0664 l 0.6796,4.757 0.6796,-4.0774 z"
         id="path84"
         sodipodi:nodetypes="cccccccsccccccccccccscccccccscccccccsccsccccccccccccccccccccsscccccccccccccscccccccccccccccccccccccccccccccccccccccccccccccccccccccccccccccccccccccccscccccccccccccccccccccccccccscccccccccccccccccccccccccccccccsccscccccccccccsccscccccccccccccccccccccccccccccccccscscscccccscccccccsccccccccccccccccccccccccccccccccscccccccccccccccccccccccccscccccccccccccccccccccccccccccccccccccccccsscccccsccccccccccccccccccccccccccscccccccccccccccccccccccccccccccccscccccccccsccc"
         style="stroke-width:0.679561" /></g><path
       id="path10"
       style="font-variation-settings:'opsz' 32, 'wght' 800;fill:#6b1787;fill-opacity:1;stroke:none;stroke-width:0.352777;stroke-linejoin:round;paint-order:markers fill stroke"
       d="M 1.0583333,10.93611 C 0.47201728,10.93611 0,10.464092 0,9.877776 v -0.35295 c 0,0.586316 0.47201728,1.058334 1.0583333,1.058334 H 29.986283 c 0.586316,0 1.058334,-0.472018 1.058334,-1.058334 v 0.35295 c 0,0.586316 -0.472018,1.058334 -1.058334,1.058334 z" /><rect
       style="font-variation-settings:'opsz' 32, 'wght' 800;fill:url(#linearGradient11);stroke:none;stroke-width:0.148761;stroke-linejoin:round;stroke-dasharray:none;stroke-opacity:1;paint-order:markers fill stroke"
       id="rect10"
       width="31.044445"
       height="10.93611"
       x="0"
       y="-1.9073487e-07"
       ry="1.038965" /></g></svg>
